<mxfile host="app.diagrams.net" modified="2021-11-10T10:25:44.060Z" agent="5.0 (Macintosh; Intel Mac OS X 10_15_7) AppleWebKit/537.36 (KHTML, like Gecko) Chrome/95.0.4638.69 Safari/537.36" etag="x7vb0yEmtknL0RJogB42" version="15.7.1" type="github">
  <diagram id="CxVSHzd_doAoFEGoSuhs" name="Page-1">
    <mxGraphModel dx="1063" dy="623" grid="1" gridSize="10" guides="1" tooltips="1" connect="1" arrows="1" fold="1" page="1" pageScale="1" pageWidth="827" pageHeight="1169" math="0" shadow="0">
      <root>
        <mxCell id="0" />
        <mxCell id="1" parent="0" />
        <mxCell id="c8ZKSFQab_wwVtqAm06O-29" style="edgeStyle=orthogonalEdgeStyle;rounded=0;orthogonalLoop=1;jettySize=auto;html=1;endArrow=block;endFill=1;exitX=1;exitY=0.25;exitDx=0;exitDy=0;" edge="1" parent="1" source="c8ZKSFQab_wwVtqAm06O-26" target="c8ZKSFQab_wwVtqAm06O-35">
          <mxGeometry relative="1" as="geometry">
            <mxPoint x="449.20000000000005" y="440" as="targetPoint" />
            <Array as="points">
              <mxPoint x="449" y="363" />
              <mxPoint x="449" y="225" />
            </Array>
          </mxGeometry>
        </mxCell>
        <mxCell id="c8ZKSFQab_wwVtqAm06O-30" value="SUBSCRIBE" style="edgeLabel;html=1;align=center;verticalAlign=middle;resizable=0;points=[];" vertex="1" connectable="0" parent="c8ZKSFQab_wwVtqAm06O-29">
          <mxGeometry x="0.1819" y="1" relative="1" as="geometry">
            <mxPoint as="offset" />
          </mxGeometry>
        </mxCell>
        <mxCell id="c8ZKSFQab_wwVtqAm06O-32" style="edgeStyle=orthogonalEdgeStyle;rounded=0;orthogonalLoop=1;jettySize=auto;html=1;endArrow=block;endFill=1;exitX=1;exitY=0.5;exitDx=0;exitDy=0;" edge="1" parent="1" source="c8ZKSFQab_wwVtqAm06O-26" target="c8ZKSFQab_wwVtqAm06O-36">
          <mxGeometry relative="1" as="geometry">
            <mxPoint x="575" y="470" as="targetPoint" />
          </mxGeometry>
        </mxCell>
        <mxCell id="c8ZKSFQab_wwVtqAm06O-33" value="PUBLISH" style="edgeLabel;html=1;align=center;verticalAlign=middle;resizable=0;points=[];" vertex="1" connectable="0" parent="c8ZKSFQab_wwVtqAm06O-32">
          <mxGeometry x="-0.4444" y="3" relative="1" as="geometry">
            <mxPoint x="13" y="3" as="offset" />
          </mxGeometry>
        </mxCell>
        <mxCell id="c8ZKSFQab_wwVtqAm06O-26" value="" style="rounded=1;whiteSpace=wrap;html=1;dashed=1;" vertex="1" parent="1">
          <mxGeometry x="38" y="310" width="390" height="210" as="geometry" />
        </mxCell>
        <mxCell id="c8ZKSFQab_wwVtqAm06O-37" style="edgeStyle=orthogonalEdgeStyle;rounded=0;orthogonalLoop=1;jettySize=auto;html=1;endArrow=block;endFill=1;exitX=1.031;exitY=0.599;exitDx=0;exitDy=0;exitPerimeter=0;" edge="1" parent="1" source="c8ZKSFQab_wwVtqAm06O-46" target="c8ZKSFQab_wwVtqAm06O-36">
          <mxGeometry relative="1" as="geometry">
            <mxPoint x="440" y="120" as="sourcePoint" />
          </mxGeometry>
        </mxCell>
        <mxCell id="c8ZKSFQab_wwVtqAm06O-45" value="SUBSCRIBE" style="edgeLabel;html=1;align=center;verticalAlign=middle;resizable=0;points=[];" vertex="1" connectable="0" parent="c8ZKSFQab_wwVtqAm06O-37">
          <mxGeometry x="0.3368" y="3" relative="1" as="geometry">
            <mxPoint as="offset" />
          </mxGeometry>
        </mxCell>
        <mxCell id="c8ZKSFQab_wwVtqAm06O-23" value="Interpretor services for supported languages" style="text;html=1;strokeColor=none;fillColor=none;align=center;verticalAlign=middle;whiteSpace=wrap;rounded=0;" vertex="1" parent="1">
          <mxGeometry x="120" y="325.9" width="290" height="30" as="geometry" />
        </mxCell>
        <mxCell id="c8ZKSFQab_wwVtqAm06O-35" value="" style="sketch=0;outlineConnect=0;fontColor=#232F3E;gradientColor=none;fillColor=#2E27AD;strokeColor=none;dashed=0;verticalLabelPosition=bottom;verticalAlign=top;align=center;html=1;fontSize=12;fontStyle=0;aspect=fixed;pointerEvents=1;shape=mxgraph.aws4.elasticache_for_redis;" vertex="1" parent="1">
          <mxGeometry x="378" y="190" width="78" height="69" as="geometry" />
        </mxCell>
        <mxCell id="c8ZKSFQab_wwVtqAm06O-36" value="" style="sketch=0;outlineConnect=0;fontColor=#232F3E;gradientColor=none;fillColor=#2E27AD;strokeColor=none;dashed=0;verticalLabelPosition=bottom;verticalAlign=top;align=center;html=1;fontSize=12;fontStyle=0;aspect=fixed;pointerEvents=1;shape=mxgraph.aws4.elasticache_for_redis;" vertex="1" parent="1">
          <mxGeometry x="490" y="190" width="78" height="69" as="geometry" />
        </mxCell>
        <mxCell id="c8ZKSFQab_wwVtqAm06O-49" style="edgeStyle=orthogonalEdgeStyle;rounded=0;orthogonalLoop=1;jettySize=auto;html=1;endArrow=block;endFill=1;" edge="1" parent="1" source="c8ZKSFQab_wwVtqAm06O-46" target="c8ZKSFQab_wwVtqAm06O-35">
          <mxGeometry relative="1" as="geometry">
            <Array as="points">
              <mxPoint x="320" y="123" />
              <mxPoint x="320" y="225" />
            </Array>
          </mxGeometry>
        </mxCell>
        <mxCell id="c8ZKSFQab_wwVtqAm06O-50" value="PUBLISH" style="edgeLabel;html=1;align=center;verticalAlign=middle;resizable=0;points=[];" vertex="1" connectable="0" parent="c8ZKSFQab_wwVtqAm06O-49">
          <mxGeometry x="0.0844" y="3" relative="1" as="geometry">
            <mxPoint as="offset" />
          </mxGeometry>
        </mxCell>
        <mxCell id="c8ZKSFQab_wwVtqAm06O-46" value="Client" style="points=[];aspect=fixed;html=1;align=center;shadow=0;dashed=0;image;image=img/lib/allied_telesis/computer_and_terminals/Personal_Computer.svg;" vertex="1" parent="1">
          <mxGeometry x="350" y="92" width="45.6" height="61.800000000000004" as="geometry" />
        </mxCell>
        <mxCell id="c8ZKSFQab_wwVtqAm06O-51" value="&lt;b&gt;1&lt;/b&gt;" style="rounded=1;whiteSpace=wrap;html=1;dashed=1;fillColor=#dae8fc;strokeColor=#6c8ebf;" vertex="1" parent="1">
          <mxGeometry x="440" y="180" width="30" height="26.2" as="geometry" />
        </mxCell>
        <mxCell id="c8ZKSFQab_wwVtqAm06O-52" value="&lt;b&gt;2&lt;/b&gt;" style="rounded=1;whiteSpace=wrap;html=1;dashed=1;fillColor=#dae8fc;strokeColor=#6c8ebf;" vertex="1" parent="1">
          <mxGeometry x="338" y="293.8" width="30" height="26.2" as="geometry" />
        </mxCell>
        <mxCell id="c8ZKSFQab_wwVtqAm06O-53" value="&lt;b&gt;3&lt;/b&gt;" style="rounded=1;whiteSpace=wrap;html=1;dashed=1;fillColor=#dae8fc;strokeColor=#6c8ebf;" vertex="1" parent="1">
          <mxGeometry x="560" y="180" width="30" height="26.2" as="geometry" />
        </mxCell>
        <mxCell id="c8ZKSFQab_wwVtqAm06O-55" value="" style="sketch=0;points=[[0,0,0],[0.25,0,0],[0.5,0,0],[0.75,0,0],[1,0,0],[0,1,0],[0.25,1,0],[0.5,1,0],[0.75,1,0],[1,1,0],[0,0.25,0],[0,0.5,0],[0,0.75,0],[1,0.25,0],[1,0.5,0],[1,0.75,0]];outlineConnect=0;fontColor=#232F3E;gradientColor=#F78E04;gradientDirection=north;fillColor=#D05C17;strokeColor=#ffffff;dashed=0;verticalLabelPosition=bottom;verticalAlign=top;align=center;html=1;fontSize=12;fontStyle=0;aspect=fixed;shape=mxgraph.aws4.resourceIcon;resIcon=mxgraph.aws4.eks;" vertex="1" parent="1">
          <mxGeometry x="90" y="322.9" width="36" height="36" as="geometry" />
        </mxCell>
        <mxCell id="c8ZKSFQab_wwVtqAm06O-56" value="Java Interpretor" style="sketch=0;outlineConnect=0;fontColor=#232F3E;gradientColor=none;fillColor=#D45B07;strokeColor=none;dashed=0;verticalLabelPosition=bottom;verticalAlign=top;align=center;html=1;fontSize=12;fontStyle=0;aspect=fixed;pointerEvents=1;shape=mxgraph.aws4.container_2;" vertex="1" parent="1">
          <mxGeometry x="95.8" y="380" width="48" height="31" as="geometry" />
        </mxCell>
        <mxCell id="c8ZKSFQab_wwVtqAm06O-57" value="C++ Interpretor" style="sketch=0;outlineConnect=0;fontColor=#232F3E;gradientColor=none;fillColor=#D45B07;strokeColor=none;dashed=0;verticalLabelPosition=bottom;verticalAlign=top;align=center;html=1;fontSize=12;fontStyle=0;aspect=fixed;pointerEvents=1;shape=mxgraph.aws4.container_2;" vertex="1" parent="1">
          <mxGeometry x="209" y="380" width="48" height="31" as="geometry" />
        </mxCell>
        <mxCell id="c8ZKSFQab_wwVtqAm06O-58" value="C Interpretor" style="sketch=0;outlineConnect=0;fontColor=#232F3E;gradientColor=none;fillColor=#D45B07;strokeColor=none;dashed=0;verticalLabelPosition=bottom;verticalAlign=top;align=center;html=1;fontSize=12;fontStyle=0;aspect=fixed;pointerEvents=1;shape=mxgraph.aws4.container_2;" vertex="1" parent="1">
          <mxGeometry x="209" y="449.5" width="48" height="31" as="geometry" />
        </mxCell>
        <mxCell id="c8ZKSFQab_wwVtqAm06O-59" value="Rust Interpretor" style="sketch=0;outlineConnect=0;fontColor=#232F3E;gradientColor=none;fillColor=#D45B07;strokeColor=none;dashed=0;verticalLabelPosition=bottom;verticalAlign=top;align=center;html=1;fontSize=12;fontStyle=0;aspect=fixed;pointerEvents=1;shape=mxgraph.aws4.container_2;" vertex="1" parent="1">
          <mxGeometry x="95.8" y="449.5" width="48" height="31" as="geometry" />
        </mxCell>
        <mxCell id="c8ZKSFQab_wwVtqAm06O-60" value="Python Interpretor" style="sketch=0;outlineConnect=0;fontColor=#232F3E;gradientColor=none;fillColor=#D45B07;strokeColor=none;dashed=0;verticalLabelPosition=bottom;verticalAlign=top;align=center;html=1;fontSize=12;fontStyle=0;aspect=fixed;pointerEvents=1;shape=mxgraph.aws4.container_2;" vertex="1" parent="1">
          <mxGeometry x="320" y="380" width="48" height="31" as="geometry" />
        </mxCell>
        <mxCell id="c8ZKSFQab_wwVtqAm06O-61" value="JavaScript Interpretor" style="sketch=0;outlineConnect=0;fontColor=#232F3E;gradientColor=none;fillColor=#D45B07;strokeColor=none;dashed=0;verticalLabelPosition=bottom;verticalAlign=top;align=center;html=1;fontSize=12;fontStyle=0;aspect=fixed;pointerEvents=1;shape=mxgraph.aws4.container_2;" vertex="1" parent="1">
          <mxGeometry x="320" y="449.5" width="48" height="31" as="geometry" />
        </mxCell>
      </root>
    </mxGraphModel>
  </diagram>
</mxfile>
